<?xml version="1.0" standalone="no"?>
<!DOCTYPE svg PUBLIC "-//W3C//DTD SVG 20010904//EN"
 "http://www.w3.org/TR/2001/REC-SVG-20010904/DTD/svg10.dtd">
<svg version="1.0" xmlns="http://www.w3.org/2000/svg"
 width="700.000000pt" height="700.000000pt" viewBox="0 0 700.000000 700.000000"
 preserveAspectRatio="xMidYMid meet">
<metadata>
Created by potrace 1.14, written by Peter Selinger 2001-2017
</metadata>
<g transform="translate(0.000000,700.000000) scale(0.100000,-0.100000)"
fill="#000000" stroke="none">
<path d="M5040 5767 c-22 -12 -115 -96 -208 -187 -146 -143 -270 -264 -797
-775 -735 -713 -859 -834 -915 -885 -19 -18 -122 -116 -229 -219 -217 -208
-202 -194 -440 -421 -164 -156 -340 -326 -632 -610 l-129 -125 -279 -695
c-153 -382 -278 -696 -276 -698 1 -1 89 47 196 107 611 343 757 425 789 444
19 11 64 36 100 55 130 70 134 74 322 328 250 336 207 280 797 1024 710 893
641 806 942 1190 140 179 286 365 324 413 39 49 98 126 133 170 35 45 71 91
80 102 10 11 82 103 162 205 79 102 147 187 150 190 24 20 133 177 140 200 39
136 -107 254 -230 187z"/>
</g>
</svg>
